<?xml version="1.0" encoding="UTF-8"?>
<svg width="16" height="16" viewBox="0 0 16 16" xmlns="http://www.w3.org/2000/svg">
    <path d="M4.5 6h-1V4.5H2V6H1V4.5a1.5 1.5 0 0 1 1.5-1.5h1A1.5 1.5 0 0 1 5 4.5V6zm11 0h-1V4.5h-1.5V6h-1V4.5A1.5 1.5 0 0 1 13.5 3h1A1.5 1.5 0 0 1 16 4.5V6zM4.5 16h-1v-1.5H2V16H1v-1.5A1.5 1.5 0 0 1 2.5 13h1a1.5 1.5 0 0 1 1.5 1.5V16zm11 0h-1v-1.5h-1.5V16h-1v-1.5a1.5 1.5 0 0 1 1.5-1.5h1a1.5 1.5 0 0 1 1.5 1.5V16zM8 1a2 2 0 0 1 2 2v1h1v2H5V4h1V3a2 2 0 0 1 2-2zm0 9a3 3 0 1 1 0-6 3 3 0 0 1 0 6z" fill="#C5C5C5"/>
</svg>